<svg width="125" height="55" viewBox="0 0 125 55" fill="none" xmlns="http://www.w3.org/2000/svg">
<rect width="125" height="55" fill="white"/>
<path fill-rule="evenodd" clip-rule="evenodd" d="M54.2885 19H52.2504L45.1984 35.568H48.5194L50.0938 31.8962H54.2885H58.4826L60.057 35.568H63.365L56.326 19H54.2885ZM54.2885 22.0618L54.3015 22.0345L57.1067 28.6184H54.2885H51.4697L54.2885 22.0618Z" fill="#1D1D1B"/>
<path fill-rule="evenodd" clip-rule="evenodd" d="M87.5873 19V35.568H100.564V32.4795H91.1854V28.9295H98.7647V25.6652H91.1854V22.0891H99.6781V19H87.5873Z" fill="#1D1D1B"/>
<path fill-rule="evenodd" clip-rule="evenodd" d="M104.889 19V35.568H117V32.5068L108.474 32.4795V19H104.889Z" fill="#1D1D1B"/>
<path fill-rule="evenodd" clip-rule="evenodd" d="M27.8969 19V35.568H31.4552V28.5232H39.0443V35.568H42.6032V19.0273H39.0443V24.9739H31.4552V19H27.8969Z" fill="#1D1D1B"/>
<path fill-rule="evenodd" clip-rule="evenodd" d="M67.6905 19V35.568H70.5886V23.4705L79.2944 35.568H82.3969V19.0273H79.2944V29.3097L71.8868 19.0273L70.5886 19H67.6905Z" fill="#1D1D1B"/>
<path fill-rule="evenodd" clip-rule="evenodd" d="M16.7115 19L15.8212 19.0411L14.9585 19.1921L14.1369 19.3977L13.3282 19.6997L12.5747 20.0698L11.8352 20.4945L11.1638 21.0015L10.5617 21.5637L10.0001 22.1946L9.49359 22.8667L9.04111 23.5799L8.69896 24.3336L8.39731 25.1425L8.17841 25.9785L8.04167 26.8426L8 27.7203L8.04167 28.598L8.17841 29.4339L8.36973 30.2564L8.65788 31.0659L9.02761 31.8196L9.45192 32.5598L9.97306 33.2454L10.5617 33.8763L11.1914 34.4661L11.8763 34.9872L12.6163 35.4255L13.3693 35.782L14.178 36.0699L14.999 36.2896L15.8482 36.3989L16.7115 36.44L17.5748 36.3989L18.424 36.2896L19.2732 36.0699L20.0397 35.782L20.8208 35.4255L21.5603 34.9872L22.2316 34.4661L22.8889 33.8763L23.3408 33.4099L23.7516 32.8888L24.1214 32.3407L24.4365 31.7785L21.2181 30.133L20.8484 30.7087L20.41 31.2298L19.944 31.6968L19.3689 32.0804L18.7662 32.4094L18.1224 32.6426L17.424 32.7795L16.7115 32.8336L16.2185 32.8206L15.7115 32.7384L15.232 32.6285L14.7666 32.45L14.3007 32.2308L13.8898 31.9706L13.479 31.6692L13.1093 31.3397L12.7666 30.956L12.4655 30.5583L12.2055 30.133L11.986 29.6812L11.8352 29.2148L11.712 28.7207L11.6439 28.2273L11.6163 27.7203L11.6439 27.2133L11.712 26.7193L11.8352 26.2393L11.986 25.787L12.2055 25.3346L12.4655 24.8958L12.7666 24.4846L13.1093 24.1144L13.479 23.7714L13.8898 23.4835L14.3007 23.2227L14.7666 23.0171L15.232 22.8391L15.7115 22.7292L16.2185 22.647L16.7115 22.6194L17.2321 22.647L17.725 22.7292L18.2039 22.8391L18.684 23.0171L19.1083 23.2227L19.5467 23.4835L19.9575 23.7714L20.3272 24.1144L20.7386 24.5938L21.0808 25.0879L24.3133 23.4424L24.0122 22.9483L23.656 22.469L23.3003 22.016L22.8889 21.5637L22.2316 20.9745L21.5603 20.481L20.8208 20.0422L20.0397 19.6721L19.2732 19.3977L18.424 19.178L17.5748 19.0411L16.7115 19Z" fill="#1D1D1B"/>
</svg>
